<svg class="editorial-diagram editorial-diagram-raw-to-guide diagram-typography-standard" xmlns="http://www.w3.org/2000/svg" viewBox="0 0 960 620" width="100%" role="img" aria-labelledby="raw-to-guide-title raw-to-guide-desc" preserveAspectRatio="xMidYMid meet"><title id="raw-to-guide-title">Raw research to offline guide schema architecture</title><desc id="raw-to-guide-desc">AI turns raw research into thirteen linked JSON datasets. One Schema contract governs validation and generation; valid data becomes lookup maps, bidirectional indexes, and a self-contained offline application.</desc><defs><marker id="raw-to-guide-arrow-default" markerWidth="8" markerHeight="8" refX="7" refY="4" orient="auto"><path d="M0,0 L8,4 L0,8 Z" fill="#5f6368"/></marker><marker id="raw-to-guide-arrow-accent" markerWidth="8" markerHeight="8" refX="7" refY="4" orient="auto"><path d="M0,0 L8,4 L0,8 Z" fill="#c2410c"/></marker><marker id="raw-to-guide-arrow-success" markerWidth="8" markerHeight="8" refX="7" refY="4" orient="auto"><path d="M0,0 L8,4 L0,8 Z" fill="#2f7652"/></marker><marker id="raw-to-guide-arrow-danger" markerWidth="8" markerHeight="8" refX="7" refY="4" orient="auto"><path d="M0,0 L8,4 L0,8 Z" fill="#a34444"/></marker></defs><style>
.editorial-diagram text{font-family:-apple-system,BlinkMacSystemFont,'Segoe UI',Roboto,'Noto Sans SC',sans-serif;fill:#2d2b55;letter-spacing:0}
.zone>rect:first-child{fill:#2d2b55;fill-opacity:.018;stroke:#d1d5db;stroke-width:1}
.zone-label-mask,.connector-label rect{fill:#faf6ef}
.zone-label,.node-tag,.connector-label text,.label-eyebrow{font-family:'SFMono-Regular',Consolas,'Liberation Mono','Noto Sans Mono CJK SC',monospace;font-size:11px;font-weight:600;letter-spacing:.08em;fill:#5f6368}
.lane rect{fill:#faf6ef;stroke:#e5e7eb;stroke-width:1}.lane-tinted rect{fill:#2d2b55;fill-opacity:.018}
.lane line{stroke:#d1d5db;stroke-width:1}.lane-label{font-family:'SFMono-Regular',Consolas,'Liberation Mono','Noto Sans Mono CJK SC',monospace;font-size:11px;font-weight:600;fill:#5f6368;letter-spacing:.06em}
.connector{fill:none;stroke:#5f6368;stroke-width:1.5}
.connector-accent{stroke:#c2410c;stroke-width:2}
.connector-success{stroke:#2f7652}.connector-danger{stroke:#a34444}
.connector-dashed{stroke-dasharray:6 4}
.node-mask,.decision-mask{fill:#faf6ef;stroke:none}
.node-box{fill:#ffffff;stroke:#2d2b55;stroke-width:1.25}
.node-muted .node-box{fill:#faf6ef;stroke:#d1d5db}
.node-store .node-box{fill:#2d2b55;fill-opacity:.045;stroke:#5f6368}
.node-optional .node-box{fill:#faf6ef;stroke:#d1d5db;stroke-dasharray:6 4}
.node-focal .node-box{fill:#fff7ed;stroke:#c2410c;stroke-width:2}
.node-success .node-box{fill:#f0f7f2;stroke:#2f7652}
.node-danger .node-box{fill:#fdf2f2;stroke:#a34444}
.node-tag-box{fill:none;stroke:#5f6368;stroke-opacity:.5}
.node-focal .node-tag-box{stroke:#c2410c}.node-focal .node-tag{fill:#c2410c}
.node-title,.decision-title{font-size:13px;font-weight:650}
.node-subtitle,.decision-subtitle{font-family:'SFMono-Regular',Consolas,'Liberation Mono','Noto Sans Mono CJK SC',monospace;font-size:10px;fill:#5f6368}
.decision-box{fill:#ffffff;stroke:#2d2b55;stroke-width:1.25}
.decision-focal .decision-box{fill:#fff7ed;stroke:#c2410c;stroke-width:2}
.connector-label rect{stroke:#e5e7eb;stroke-width:.5}
.connector-label-accent rect{stroke:#c2410c;stroke-opacity:.45}.connector-label-accent text{fill:#c2410c}
.connector-label-success rect{stroke:#2f7652;stroke-opacity:.45}.connector-label-success text{fill:#2f7652}
.connector-label-danger rect{stroke:#a34444;stroke-opacity:.45}.connector-label-danger text{fill:#a34444}
.connector-label-dashed rect{stroke:#5f6368;stroke-dasharray:3 2}.connector-label-dashed text{fill:#5f6368}
.annotation line{stroke:#c2410c;stroke-width:2}.annotation text{font-size:12px;font-style:italic}
.label-metric{font-family:'SFMono-Regular',Consolas,'Liberation Mono','Noto Sans Mono CJK SC',monospace;font-size:12px;font-weight:600;fill:#c2410c}
.step-header rect{fill:#2d2b55;fill-opacity:.1}.step-header text{font-family:'SFMono-Regular',Consolas,'Liberation Mono','Noto Sans Mono CJK SC',monospace;font-size:11px;font-weight:600;fill:#5f6368}
.step-header .step-label{letter-spacing:.06em}.step-focal rect{fill:#f97316;fill-opacity:.16}.step-focal text{fill:#c2410c}
.diagram-typography-expanded .zone-label,.diagram-typography-expanded .node-tag,.diagram-typography-expanded .connector-label text,.diagram-typography-expanded .label-eyebrow{font-size:12px}
.diagram-typography-expanded .node-title,.diagram-typography-expanded .decision-title{font-size:14px}
.diagram-typography-expanded .node-subtitle,.diagram-typography-expanded .decision-subtitle{font-size:10px}
.diagram-typography-expanded .annotation text{font-size:13px}
</style><rect width="960" height="620" fill="#faf6ef"/><g class="zone"><rect x="32" y="64" width="896" height="240" rx="8"/><rect class="zone-label-mask" x="48" y="60" width="180" height="16" rx="4"/><text class="zone-label" x="56" y="72">AUTHORING + VALIDATION</text></g><g class="zone"><rect x="32" y="344" width="896" height="212" rx="8"/><rect class="zone-label-mask" x="48" y="340" width="192" height="16" rx="4"/><text class="zone-label" x="56" y="352">BUILD + OFFLINE DELIVERY</text></g><path class="connector connector-default" d="M 200 160 L 240 160" marker-end="url(#raw-to-guide-arrow-default)"/><path class="connector connector-accent" d="M 388 160 L 432 160" marker-end="url(#raw-to-guide-arrow-accent)"/><path class="connector connector-default" d="M 592 160 L 672 160" marker-end="url(#raw-to-guide-arrow-default)"/><path class="connector connector-accent" d="M 512 228 L 512 222 Q 512 216 520 216 L 752 216 Q 760 216 760 212 L 760 208" marker-end="url(#raw-to-guide-arrow-accent)"/><path class="connector connector-dashed" d="M 672 128 L 648 128 Q 640 128 640 120 L 640 96 Q 640 88 632 88 L 320 88 Q 312 88 312 96 L 312 120" marker-end="url(#raw-to-guide-arrow-default)"/><path class="connector connector-success" d="M 760 208 L 760 320 Q 760 328 752 328 L 368 328 Q 360 328 360 336 L 360 396" marker-end="url(#raw-to-guide-arrow-success)"/><path class="connector connector-accent" d="M 512 304 L 512 352 Q 512 360 504 360 L 416 360 Q 408 360 408 368 L 408 396" marker-end="url(#raw-to-guide-arrow-accent)"/><path class="connector connector-default" d="M 456 440 L 520 440" marker-end="url(#raw-to-guide-arrow-default)"/><path class="connector connector-default" d="M 696 440 L 760 440" marker-end="url(#raw-to-guide-arrow-default)"/><g class="node node-muted"><rect class="node-mask" x="48" y="120" width="152" height="80" rx="8"/><rect class="node-box" x="48" y="120" width="152" height="80" rx="8"/><rect class="node-tag-box" x="60" y="128" width="52" height="16" rx="4"/><text class="node-tag" x="86" y="140" text-anchor="middle">HUMAN</text><text class="node-title" text-anchor="middle"><tspan x="124" y="160">Raw research</tspan></text><text class="node-subtitle" text-anchor="middle"><tspan x="124" y="180">notes + screenshots</tspan></text></g><g class="node node-default"><rect class="node-mask" x="240" y="120" width="148" height="80" rx="8"/><rect class="node-box" x="240" y="120" width="148" height="80" rx="8"/><rect class="node-tag-box" x="252" y="128" width="32" height="16" rx="4"/><text class="node-tag" x="268" y="140" text-anchor="middle">AI</text><text class="node-title" text-anchor="middle"><tspan x="314" y="160">AI authoring</tspan></text><text class="node-subtitle" text-anchor="middle"><tspan x="314" y="180">normalize entities</tspan></text></g><g class="node node-store"><rect class="node-mask" x="432" y="112" width="160" height="96" rx="8"/><rect class="node-box" x="432" y="112" width="160" height="96" rx="8"/><rect class="node-tag-box" x="444" y="120" width="44" height="16" rx="4"/><text class="node-tag" x="466" y="132" text-anchor="middle">DATA</text><text class="node-title" text-anchor="middle"><tspan x="512" y="152">13 JSON files</tspan></text><text class="node-subtitle" text-anchor="middle"><tspan x="512" y="172">IDs + typed refs</tspan></text></g><g class="node node-default"><rect class="node-mask" x="672" y="112" width="176" height="96" rx="8"/><rect class="node-box" x="672" y="112" width="176" height="96" rx="8"/><rect class="node-tag-box" x="684" y="120" width="44" height="16" rx="4"/><text class="node-tag" x="706" y="132" text-anchor="middle">CODE</text><text class="node-title" text-anchor="middle"><tspan x="760" y="152">Reference validator</tspan></text><text class="node-subtitle" text-anchor="middle"><tspan x="760" y="172">integrity + symmetry</tspan></text></g><g class="node node-focal"><rect class="node-mask" x="432" y="228" width="160" height="76" rx="8"/><rect class="node-box" x="432" y="228" width="160" height="76" rx="8"/><rect class="node-tag-box" x="444" y="236" width="52" height="16" rx="4"/><text class="node-tag" x="470" y="248" text-anchor="middle">TRUST</text><text class="node-title" text-anchor="middle"><tspan x="512" y="268">SCHEMA CONTRACT</tspan></text><text class="node-subtitle" text-anchor="middle"><tspan x="512" y="288">entities + relations</tspan></text></g><g class="node node-default"><rect class="node-mask" x="264" y="396" width="192" height="88" rx="8"/><rect class="node-box" x="264" y="396" width="192" height="88" rx="8"/><rect class="node-tag-box" x="276" y="404" width="44" height="16" rx="4"/><text class="node-tag" x="298" y="416" text-anchor="middle">CODE</text><text class="node-title" text-anchor="middle"><tspan x="360" y="436">Schema generator</tspan></text><text class="node-subtitle" text-anchor="middle"><tspan x="360" y="456">load + Jinja2 render</tspan></text></g><g class="node node-store"><rect class="node-mask" x="520" y="396" width="176" height="96" rx="8"/><rect class="node-box" x="520" y="396" width="176" height="96" rx="8"/><rect class="node-tag-box" x="532" y="404" width="52" height="16" rx="4"/><text class="node-tag" x="558" y="416" text-anchor="middle">BUILD</text><text class="node-title" text-anchor="middle"><tspan x="608" y="432">Maps + indexes</tspan><tspan x="608" y="448">+ backrefs</tspan></text><text class="node-subtitle" text-anchor="middle"><tspan x="608" y="460">O(1) linked lookup</tspan></text></g><g class="node node-success"><rect class="node-mask" x="760" y="396" width="160" height="88" rx="8"/><rect class="node-box" x="760" y="396" width="160" height="88" rx="8"/><rect class="node-tag-box" x="772" y="404" width="68" height="16" rx="4"/><text class="node-tag" x="806" y="416" text-anchor="middle">DELIVER</text><text class="node-title" text-anchor="middle"><tspan x="840" y="436">OFFLINE H5</tspan></text><text class="node-subtitle" text-anchor="middle"><tspan x="840" y="456">23 routes / one file</tspan></text></g><text class="label label-eyebrow" x="32" y="32" text-anchor="start">ONE SCHEMA GOVERNS AUTHORING, VALIDATION, AND GENERATION</text><g class="connector-label connector-label-accent"><rect x="600" y="200" width="80" height="16" rx="4"/><text x="640" y="212" text-anchor="middle">VALIDATES</text></g><g class="connector-label connector-label-dashed"><rect x="412" y="72" width="128" height="16" rx="4"/><text x="476" y="84" text-anchor="middle">FIX INVALID REFS</text></g><g class="connector-label connector-label-success"><rect x="516" y="296" width="88" height="16" rx="4"/><text x="560" y="308" text-anchor="middle">VALID DATA</text></g><g class="connector-label connector-label-accent"><rect x="410" y="328" width="100" height="16" rx="4"/><text x="460" y="340" text-anchor="middle">DRIVES BUILD</text></g><g class="annotation"><line x1="48" y1="592" x2="72" y2="592"/><text x="84" y="596">AI output is provisional; only Schema-valid references reach the generator.</text></g></svg>