<svg class="editorial-diagram editorial-diagram-decision-maker diagram-typography-standard" xmlns="http://www.w3.org/2000/svg" viewBox="0 0 960 640" width="100%" role="img" aria-labelledby="decision-maker-title decision-maker-desc" preserveAspectRatio="xMidYMid meet"><title id="decision-maker-title">AI-decision-maker three-engine routing</title><desc id="decision-maker-desc">A deterministic profile and fingerprint either reuse cached signals at zero token cost or escalate a judgement through three engines: local lookup, a probability engine, and a generative model. Code gates every confidence and owns every write.</desc><defs><marker id="decision-maker-arrow-default" markerWidth="8" markerHeight="8" refX="7" refY="4" orient="auto"><path d="M0,0 L8,4 L0,8 Z" fill="#5f6368"/></marker><marker id="decision-maker-arrow-accent" markerWidth="8" markerHeight="8" refX="7" refY="4" orient="auto"><path d="M0,0 L8,4 L0,8 Z" fill="#c2410c"/></marker><marker id="decision-maker-arrow-success" markerWidth="8" markerHeight="8" refX="7" refY="4" orient="auto"><path d="M0,0 L8,4 L0,8 Z" fill="#2f7652"/></marker><marker id="decision-maker-arrow-danger" markerWidth="8" markerHeight="8" refX="7" refY="4" orient="auto"><path d="M0,0 L8,4 L0,8 Z" fill="#a34444"/></marker></defs><style>
.editorial-diagram text{font-family:-apple-system,BlinkMacSystemFont,'Segoe UI',Roboto,'Noto Sans SC',sans-serif;fill:#2d2b55;letter-spacing:0}
.zone>rect:first-child{fill:#2d2b55;fill-opacity:.018;stroke:#d1d5db;stroke-width:1}
.zone-label-mask,.connector-label rect{fill:#faf6ef}
.zone-label,.node-tag,.connector-label text,.label-eyebrow{font-family:'SFMono-Regular',Consolas,'Liberation Mono','Noto Sans Mono CJK SC',monospace;font-size:11px;font-weight:600;letter-spacing:.08em;fill:#5f6368}
.lane rect{fill:#faf6ef;stroke:#e5e7eb;stroke-width:1}.lane-tinted rect{fill:#2d2b55;fill-opacity:.018}
.lane line{stroke:#d1d5db;stroke-width:1}.lane-label{font-family:'SFMono-Regular',Consolas,'Liberation Mono','Noto Sans Mono CJK SC',monospace;font-size:11px;font-weight:600;fill:#5f6368;letter-spacing:.06em}
.connector{fill:none;stroke:#5f6368;stroke-width:1.5}
.connector-accent{stroke:#c2410c;stroke-width:2}
.connector-success{stroke:#2f7652}.connector-danger{stroke:#a34444}
.connector-dashed{stroke-dasharray:6 4}
.node-mask,.decision-mask{fill:#faf6ef;stroke:none}
.node-box{fill:#ffffff;stroke:#2d2b55;stroke-width:1.25}
.node-muted .node-box{fill:#faf6ef;stroke:#d1d5db}
.node-store .node-box{fill:#2d2b55;fill-opacity:.045;stroke:#5f6368}
.node-optional .node-box{fill:#faf6ef;stroke:#d1d5db;stroke-dasharray:6 4}
.node-focal .node-box{fill:#fff7ed;stroke:#c2410c;stroke-width:2}
.node-success .node-box{fill:#f0f7f2;stroke:#2f7652}
.node-danger .node-box{fill:#fdf2f2;stroke:#a34444}
.node-tag-box{fill:none;stroke:#5f6368;stroke-opacity:.5}
.node-focal .node-tag-box{stroke:#c2410c}.node-focal .node-tag{fill:#c2410c}
.node-title,.decision-title{font-size:13px;font-weight:650}
.node-subtitle,.decision-subtitle{font-family:'SFMono-Regular',Consolas,'Liberation Mono','Noto Sans Mono CJK SC',monospace;font-size:10px;fill:#5f6368}
.decision-box{fill:#ffffff;stroke:#2d2b55;stroke-width:1.25}
.decision-focal .decision-box{fill:#fff7ed;stroke:#c2410c;stroke-width:2}
.connector-label rect{stroke:#e5e7eb;stroke-width:.5}
.connector-label-accent rect{stroke:#c2410c;stroke-opacity:.45}.connector-label-accent text{fill:#c2410c}
.connector-label-success rect{stroke:#2f7652;stroke-opacity:.45}.connector-label-success text{fill:#2f7652}
.connector-label-danger rect{stroke:#a34444;stroke-opacity:.45}.connector-label-danger text{fill:#a34444}
.connector-label-dashed rect{stroke:#5f6368;stroke-dasharray:3 2}.connector-label-dashed text{fill:#5f6368}
.annotation line{stroke:#c2410c;stroke-width:2}.annotation text{font-size:12px;font-style:italic}
.label-metric{font-family:'SFMono-Regular',Consolas,'Liberation Mono','Noto Sans Mono CJK SC',monospace;font-size:12px;font-weight:600;fill:#c2410c}
.step-header rect{fill:#2d2b55;fill-opacity:.1}.step-header text{font-family:'SFMono-Regular',Consolas,'Liberation Mono','Noto Sans Mono CJK SC',monospace;font-size:11px;font-weight:600;fill:#5f6368}
.step-header .step-label{letter-spacing:.06em}.step-focal rect{fill:#f97316;fill-opacity:.16}.step-focal text{fill:#c2410c}
.diagram-typography-expanded .zone-label,.diagram-typography-expanded .node-tag,.diagram-typography-expanded .connector-label text,.diagram-typography-expanded .label-eyebrow{font-size:12px}
.diagram-typography-expanded .node-title,.diagram-typography-expanded .decision-title{font-size:14px}
.diagram-typography-expanded .node-subtitle,.diagram-typography-expanded .decision-subtitle{font-size:10px}
.diagram-typography-expanded .annotation text{font-size:13px}
</style><rect width="960" height="640" fill="#faf6ef"/><g class="zone"><rect x="32" y="64" width="896" height="536" rx="8"/><rect class="zone-label-mask" x="48" y="60" width="340" height="16" rx="4"/><text class="zone-label" x="56" y="72">THREE ESCALATING ENGINES, ONE CODE-OWNED GATE</text></g><path class="connector connector-default" d="M 176 328 L 200 328" marker-end="url(#decision-maker-arrow-default)"/><path class="connector connector-accent" d="M 264 276 L 264 152 Q 264 144 272 144 L 400 144" marker-end="url(#decision-maker-arrow-accent)"/><path class="connector connector-default" d="M 328 328 L 356 328 Q 364 328 364 320 L 364 276 Q 364 268 372 268 L 400 268" marker-end="url(#decision-maker-arrow-default)"/><path class="connector connector-default" d="M 504 304 L 504 352" marker-end="url(#decision-maker-arrow-default)"/><path class="connector connector-default" d="M 608 388 L 664 388" marker-end="url(#decision-maker-arrow-default)"/><path class="connector connector-success" d="M 736 336 L 736 312" marker-end="url(#decision-maker-arrow-success)"/><path class="connector connector-accent" d="M 736 440 L 736 500 Q 736 508 728 508 L 608 508" marker-end="url(#decision-maker-arrow-accent)"/><path class="connector connector-default" d="M 504 544 L 504 568 Q 504 576 512 576 L 848 576 Q 856 576 856 568 L 856 276 Q 856 268 848 268 L 824 268" marker-end="url(#decision-maker-arrow-default)"/><path class="connector connector-success" d="M 736 224 L 736 176" marker-end="url(#decision-maker-arrow-success)"/><path class="connector connector-success" d="M 816 140 L 832 140" marker-end="url(#decision-maker-arrow-success)"/><path class="connector connector-default" d="M 608 144 L 612 144 Q 616 144 616 152 L 616 260 Q 616 268 624 268 L 648 268" marker-end="url(#decision-maker-arrow-default)"/><g class="node node-muted"><rect class="node-mask" x="48" y="288" width="128" height="80" rx="8"/><rect class="node-box" x="48" y="288" width="128" height="80" rx="8"/><rect class="node-tag-box" x="60" y="296" width="44" height="16" rx="4"/><text class="node-tag" x="82" y="308" text-anchor="middle">CODE</text><text class="node-title" text-anchor="middle"><tspan x="112" y="328">CSV profile</tspan></text><text class="node-subtitle" text-anchor="middle"><tspan x="112" y="348">fields + samples</tspan></text></g><g class="decision"><polygon class="decision-mask" points="264,276 328,328 264,380 200,328"/><polygon class="decision-box" points="264,276 328,328 264,380 200,328"/><text class="decision-title" text-anchor="middle"><tspan x="264" y="324">Fingerprint</tspan></text><text class="decision-subtitle" x="264" y="352" text-anchor="middle">cached?</text></g><g class="node node-store"><rect class="node-mask" x="400" y="104" width="208" height="80" rx="8"/><rect class="node-box" x="400" y="104" width="208" height="80" rx="8"/><rect class="node-tag-box" x="412" y="112" width="68" height="16" rx="4"/><text class="node-tag" x="446" y="124" text-anchor="middle">0 TOKEN</text><text class="node-title" text-anchor="middle"><tspan x="504" y="144">Cached signals</tspan></text><text class="node-subtitle" text-anchor="middle"><tspan x="504" y="164">scene + field codes</tspan></text></g><g class="node node-muted"><rect class="node-mask" x="400" y="232" width="208" height="72" rx="8"/><rect class="node-box" x="400" y="232" width="208" height="72" rx="8"/><rect class="node-tag-box" x="412" y="240" width="44" height="16" rx="4"/><text class="node-tag" x="434" y="252" text-anchor="middle">CODE</text><text class="node-title" text-anchor="middle"><tspan x="504" y="272">System 0</tspan></text><text class="node-subtitle" text-anchor="middle"><tspan x="504" y="292">local lookup · 0 TOKEN</tspan></text></g><g class="node node-default"><rect class="node-mask" x="400" y="352" width="208" height="72" rx="8"/><rect class="node-box" x="400" y="352" width="208" height="72" rx="8"/><rect class="node-tag-box" x="412" y="360" width="32" height="16" rx="4"/><text class="node-tag" x="428" y="372" text-anchor="middle">AI</text><text class="node-title" text-anchor="middle"><tspan x="504" y="392">System 1 · Jev</tspan></text><text class="node-subtitle" text-anchor="middle"><tspan x="504" y="412">probability, not text</tspan></text></g><g class="node node-default"><rect class="node-mask" x="400" y="472" width="208" height="72" rx="8"/><rect class="node-box" x="400" y="472" width="208" height="72" rx="8"/><rect class="node-tag-box" x="412" y="480" width="32" height="16" rx="4"/><text class="node-tag" x="428" y="492" text-anchor="middle">AI</text><text class="node-title" text-anchor="middle"><tspan x="504" y="512">System 2 · LLM</tspan></text><text class="node-subtitle" text-anchor="middle"><tspan x="504" y="532">generated text</tspan></text></g><g class="decision decision-focal"><polygon class="decision-mask" points="736,336 808,388 736,440 664,388"/><polygon class="decision-box" points="736,336 808,388 736,440 664,388"/><text class="decision-title" text-anchor="middle"><tspan x="736" y="384">Gate</tspan></text><text class="decision-subtitle" x="736" y="412" text-anchor="middle">CODE</text></g><g class="node node-default"><rect class="node-mask" x="648" y="224" width="176" height="88" rx="8"/><rect class="node-box" x="648" y="224" width="176" height="88" rx="8"/><rect class="node-tag-box" x="660" y="232" width="44" height="16" rx="4"/><text class="node-tag" x="682" y="244" text-anchor="middle">CODE</text><text class="node-title" text-anchor="middle"><tspan x="736" y="260">VALIDATE</tspan><tspan x="736" y="276">+ ASSEMBLE</tspan></text><text class="node-subtitle" text-anchor="middle"><tspan x="736" y="288">operation registry</tspan></text></g><g class="node node-default"><rect class="node-mask" x="656" y="104" width="160" height="72" rx="8"/><rect class="node-box" x="656" y="104" width="160" height="72" rx="8"/><rect class="node-tag-box" x="668" y="112" width="44" height="16" rx="4"/><text class="node-tag" x="690" y="124" text-anchor="middle">CODE</text><text class="node-title" text-anchor="middle"><tspan x="736" y="144">Local execute</tspan></text><text class="node-subtitle" text-anchor="middle"><tspan x="736" y="164">quality report</tspan></text></g><g class="node node-success"><rect class="node-mask" x="832" y="104" width="96" height="72" rx="8"/><rect class="node-box" x="832" y="104" width="96" height="72" rx="8"/><rect class="node-tag-box" x="844" y="112" width="60" height="16" rx="4"/><text class="node-tag" x="874" y="124" text-anchor="middle">OUTPUT</text><text class="node-title" text-anchor="middle"><tspan x="880" y="144">Clean data</tspan></text><text class="node-subtitle" text-anchor="middle"><tspan x="880" y="164">deterministic</tspan></text></g><text class="label label-eyebrow" x="32" y="32" text-anchor="start">AI PROPOSES SIGNALS / CODE OWNS EVERY WRITE</text><g class="connector-label connector-label-accent"><rect x="278" y="112" width="108" height="16" rx="4"/><text x="332" y="124" text-anchor="middle">HIT / 0 TOKEN</text></g><g class="connector-label connector-label-default"><rect x="322" y="236" width="44" height="16" rx="4"/><text x="344" y="248" text-anchor="middle">MISS</text></g><g class="connector-label connector-label-success"><rect x="738" y="312" width="60" height="16" rx="4"/><text x="768" y="324" text-anchor="middle">ACCEPT</text></g><g class="connector-label connector-label-accent"><rect x="664" y="476" width="72" height="16" rx="4"/><text x="700" y="488" text-anchor="middle">ESCALATE</text></g><g class="annotation"><line x1="48" y1="616" x2="72" y2="616"/><text x="84" y="620">Jev returns probabilities, not text — invalid codes are unrepresentable. Measured: 1.9–3.5× DeepSeek&#x27;s cost.</text></g></svg>